<?xml version="1.0" standalone="no"?><!DOCTYPE svg PUBLIC "-//W3C//DTD SVG 1.1//EN" "http://www.w3.org/Graphics/SVG/1.1/DTD/svg11.dtd"><svg t="1775985263620" class="icon" viewBox="0 0 1024 1024" version="1.1" xmlns="http://www.w3.org/2000/svg" p-id="18180" xmlns:xlink="http://www.w3.org/1999/xlink" width="32" height="32"><path d="M183.04 366.08a80 80 0 0 0 16-56.32 105.6 105.6 0 0 0-7.04-38.4 41.6 41.6 0 0 0-22.4-21.76 39.04 39.04 0 0 0 22.4-20.48 81.92 81.92 0 0 0 5.76-32 74.24 74.24 0 0 0-15.36-52.48 64 64 0 0 0-51.2-16.64H64v256h64a64 64 0 0 0 55.04-17.92zM107.52 168.96H128a26.24 26.24 0 0 1 21.76 7.04 37.12 37.12 0 0 1 6.4 23.68 37.12 37.12 0 0 1-6.4 23.68 26.24 26.24 0 0 1-21.76 7.04h-20.48z m0 174.08V270.08H128a25.6 25.6 0 0 1 21.76 8.32 46.72 46.72 0 0 1 7.04 28.16 45.44 45.44 0 0 1-6.4 28.16 24.96 24.96 0 0 1-22.4 8.32z m163.2-8.96h57.6l9.6 49.92H384L320 128h-42.24l-64 256h46.08zM299.52 192L320 293.12h-41.6z m458.88 34.56a29.44 29.44 0 0 0-13.44 0L787.2 128h-46.08l-43.52 100.48a164.48 164.48 0 0 0-8.96 26.88 128 128 0 0 0 0 29.44V320a64 64 0 0 0 15.36 46.08 57.6 57.6 0 0 0 44.16 16 58.24 58.24 0 0 0 44.16-16 64 64 0 0 0 15.36-44.16v-42.24a60.16 60.16 0 0 0-12.16-40.96 40.32 40.32 0 0 0-37.12-14.72z m0 99.84a24.96 24.96 0 0 1-3.84 14.72 14.08 14.08 0 0 1-11.52 5.12c-10.24 0-15.36-7.04-15.36-19.84v-45.44a17.92 17.92 0 0 1 3.84-12.8 14.08 14.08 0 0 1 11.52-5.12c10.24 0 15.36 6.4 15.36 19.84zM554.24 384h110.08v-40.96h-64V273.92h56.96v-40.32h-59.52v-64h64V128H554.24z m390.4-83.84v-56.32h-44.16v56.32h-30.08L919.68 128h-44.16l-49.28 172.16v40.96h74.24V384h44.16v-42.88H960v-40.96zM480 236.8l-16-7.04a51.2 51.2 0 0 1-19.84-14.08 34.56 34.56 0 0 1-5.76-23.68c0-18.56 7.68-28.16 23.68-28.16a19.84 19.84 0 0 1 18.56 8.32 46.08 46.08 0 0 1 5.76 25.6h40.96a85.76 85.76 0 0 0-15.36-51.2A64 64 0 0 0 462.08 128a64 64 0 0 0-48.64 18.56 70.4 70.4 0 0 0-18.56 50.56 73.6 73.6 0 0 0 10.88 42.24 76.16 76.16 0 0 0 34.56 26.88l16.64 7.68a58.88 58.88 0 0 1 22.4 15.36 36.48 36.48 0 0 1 7.04 23.04 40.96 40.96 0 0 1-6.4 25.6 26.24 26.24 0 0 1-37.76 0 50.56 50.56 0 0 1-7.68-27.52h-41.6a78.72 78.72 0 0 0 17.92 55.04 64 64 0 0 0 49.28 19.2 68.48 68.48 0 0 0 51.84-19.2 74.88 74.88 0 0 0 17.92-53.76 81.92 81.92 0 0 0-11.52-46.08 85.76 85.76 0 0 0-38.4-28.8zM320 480V576H128v64h192v128H128v64h192v96l128-128L352 704 448 608z" fill="#616971" p-id="18181"></path><path d="M640 480a128 128 0 0 0-128 128v192a128 128 0 0 0 256 0v-192a128 128 0 0 0-128-128z m192 0v448h64v-448z m-192 64a64 64 0 0 1 64 64v192a64 64 0 0 1-128 0v-192a64 64 0 0 1 64-64z" fill="#FF8910" p-id="18182"></path></svg>