<?xml version="1.0" standalone="no"?><!DOCTYPE svg PUBLIC "-//W3C//DTD SVG 1.1//EN" "http://www.w3.org/Graphics/SVG/1.1/DTD/svg11.dtd"><svg t="1775976807802" class="icon" viewBox="0 0 1024 1024" version="1.1" xmlns="http://www.w3.org/2000/svg" p-id="52975" xmlns:xlink="http://www.w3.org/1999/xlink" width="32" height="32"><path d="M926.6 336.8c-22.8-53.8-54.9-101.5-96.4-143-41.5-41.5-89.2-73.7-143-96.4C631.4 73.8 573 62 512 62c-62.9 0-122.9 12.5-180.1 37.5-13.8 6-20.7 16.6-20.7 31.6v1.2c0.2 4.4 1.1 8.6 2.9 12.6 3.8 8.7 10.2 14.8 19 18.3 4 1.6 8.3 2.4 12.6 2.4h0.6c4.6-0.1 9-1 13.2-2.9h0.1C408 141.6 458.8 131 512 131c51.7 0 101.1 10 148.3 29.9 45.6 19.3 85.9 46.5 121.1 81.7 35.2 35.2 62.4 75.5 81.7 121.1C883 410.9 893 460.3 893 512c0 9.5 3.4 17.7 10.1 24.4 6.7 6.7 14.9 10.1 24.4 10.1 9.5 0 17.7-3.4 24.4-10.1 6.7-6.7 10.1-14.9 10.1-24.4 0-61-11.8-119.4-35.4-175.2z" p-id="52976"></path><path d="M776.2 512.8L711.4 425h-45.3v174h50.5v-89.3l65.8 89.3H827V425h-50.8zM260 602c22.8 0 39.8-5.7 51-17.2l0.1-0.1 0.1-0.1c9.5-10.3 14.2-25.2 14.3-44.8 1.6 22 10.7 38.4 27.3 49.1 13.5 8.7 31.8 13 54.9 13 23.7 0 42.5-4.7 56.4-14 13.7-9.4 21-22 21.8-37.6 3.8 9.3 9.3 17.7 16.3 25.1 16.9 17.7 39.9 26.5 69 26.5 29 0 51.9-8.7 68.9-26.2 15.7-16.3 23.6-37.5 23.6-63.5 0-26.2-7.9-47.4-23.6-63.7-16.9-17.7-39.9-26.5-68.9-26.5-29.4 0-52.5 8.9-69.1 26.8-9.3 9.8-15.8 21.3-19.5 34.7l-0.4-3.8c-1.9-19.7-10-34.4-24.3-44.3-13-8.9-30.6-13.4-53.1-13.4-20.5 0-37.5 4.4-51.1 13.2-15.5 9.7-23.3 23-23.3 40.2 0 17.2 8.1 30.4 24.4 39.4 5.7 3 19.2 7.7 40.7 14 17.2 4.9 27.4 8 30.5 9.5 6.3 2.9 9.5 6.5 9.5 10.6 0 2.6-1.8 4.9-5.3 6.9-5.2 2.7-12.8 4.1-22.6 4.1-10.8 0-18.4-1.5-23.1-4.6-4.6-3.2-7.6-9.3-9.1-18.5l-1.4-8.6h-48.7V425h-50.5v113.3c0 8.8-1.4 14.9-4.1 18.1-1.9 2.3-5.4 3.4-10.5 3.4-4.5 0-7.6-0.9-9.4-2.8-2.4-2.6-3.6-7.1-3.6-13.7v-14.7H197v15c0 17.6 5.4 31.7 16.1 42.2C224 596.6 239.6 602 260 602z m280.7-125.6c7.2-8.2 17.4-12.2 30.7-12.2 13.5 0 23.7 3.8 30.5 11.4 7.5 8.6 11.3 20.8 11.3 36.6 0 15.7-3.8 27.8-11.3 36.2-7 7.6-17.1 11.4-30.5 11.4-13.4 0-23.6-4-30.6-12-7.4-8.5-11.1-20.3-11.1-35.6-0.1-15.4 3.6-27.3 11-35.8z m-127.6 13.2c-14.4-4.3-23.1-7.1-26.2-8.7-3.9-1.9-5.8-4.3-5.8-7.1 0-3.5 1.4-5.9 4.1-7.2l0.2-0.1 0.2-0.1c3.6-1.8 9.6-2.7 18-2.7 9.6 0 16.3 1.3 20 3.9l0.1 0.1 0.1 0.1c4 2.7 6.9 7.6 8.6 14.7l1.9 7.9h46.8c-1.3 6.8-2 14-2 21.7 0 4 0.2 8 0.6 11.8-4.5-7.1-11.3-13.2-20.4-18.2-8.2-4.2-23.5-9.6-46.2-16.1z" p-id="52977"></path><path d="M709.9 879.1c-3.8-8.7-10.2-14.8-19-18.3-4-1.6-8.2-2.4-12.6-2.4h-0.6c-4.6 0.1-9 1-13.2 2.9l-0.1 0.1C616 882.4 565.2 893 512 893c-51.7 0-101.1-10-148.3-29.9-45.6-19.3-85.9-46.5-121.1-81.7-35.2-35.2-62.4-75.5-81.7-121.1C141 613.1 131 563.7 131 512c0-9.5-3.4-17.7-10.1-24.4-6.7-6.7-14.9-10.1-24.4-10.1-9.5 0-17.7 3.4-24.4 10.1C65.4 494.3 62 502.5 62 512v0.1c0 61 11.8 119.4 35.4 175.1 22.8 53.8 54.9 101.5 96.4 143 41.5 41.5 89.2 73.7 143 96.4C392.6 950.2 451 962 512 962c62.8 0 122.8-12.5 179.9-37.4h0.1c13.8-6 20.7-16.6 20.7-31.6v-1.2c-0.1-4.5-1.1-8.7-2.8-12.7z" p-id="52978"></path></svg>