<?xml version="1.0" standalone="no"?><!DOCTYPE svg PUBLIC "-//W3C//DTD SVG 1.1//EN" "http://www.w3.org/Graphics/SVG/1.1/DTD/svg11.dtd"><svg t="1775978073202" class="icon" viewBox="0 0 1024 1024" version="1.1" xmlns="http://www.w3.org/2000/svg" p-id="13713" xmlns:xlink="http://www.w3.org/1999/xlink" width="32" height="32"><path d="M678.4 415.7m-169.6 0a169.6 169.6 0 1 0 339.2 0 169.6 169.6 0 1 0-339.2 0Z" fill="#03BD61" p-id="13714"></path><path d="M777.8 442.8c-4.4 0-8.8 0.2-13.2 0.5-9.9-125.4-115.1-224.5-243.1-224.5-116.8 0-216 83.3-238.8 194.8-7.1-0.8-14.2-1.2-21.3-1.2C153.1 412.4 65 500.5 65 608.8s88.1 196.4 196.4 196.4h516.4c99.9 0 181.2-81.3 181.2-181.2s-81.3-181.2-181.2-181.2z m0 303.8H261.4c-76 0-137.7-61.8-137.7-137.8S185.5 471 261.4 471c12.8 0 25.6 1.8 38 5.4 8.5 2.4 17.7 0.9 24.9-4.2 7.2-5.1 11.8-13.2 12.4-22 6.4-96.9 87.6-172.8 184.7-172.8 102.1 0 185.2 83.1 185.2 185.2 0 4-0.2 8.2-0.5 13.4-0.7 9.6 3.3 18.9 10.8 24.9 7.5 6 17.4 8 26.6 5.4 11.2-3.2 22.7-4.9 34.2-4.9 67.6 0 122.6 55 122.6 122.6s-54.9 122.6-122.5 122.6z" fill="#23202D" p-id="13715"></path><path d="M636.2 583.5c-12.6-10.2-31-8.3-41.2 4.3-26.2 32.2-53.7 48.6-81.8 48.7h-0.3c-49.1 0-89.4-47.8-90.2-48.8-10.2-12.5-28.6-14.4-41.2-4.2-12.6 10.2-14.5 28.7-4.3 41.2 2.3 2.9 58.1 70.4 135.6 70.4 46.7 0 89.6-23.7 127.6-70.4 10.3-12.6 8.4-31-4.2-41.2z" fill="#23202D" p-id="13716"></path></svg>