<?xml version="1.0" standalone="no"?><!DOCTYPE svg PUBLIC "-//W3C//DTD SVG 1.1//EN" "http://www.w3.org/Graphics/SVG/1.1/DTD/svg11.dtd"><svg t="1775975216418" class="icon" viewBox="0 0 1024 1024" version="1.1" xmlns="http://www.w3.org/2000/svg" p-id="10464" xmlns:xlink="http://www.w3.org/1999/xlink" width="32" height="32"><path d="M734.046316 179.649123a81.560702 81.560702 0 0 0-62.338246 28.743859 57.128421 57.128421 0 0 1 45.271579 55.152281v44.912281h47.427369a48.325614 48.325614 0 0 1 28.743859 10.778947A82.279298 82.279298 0 0 0 734.046316 179.649123z m52.457544 93.237895h-59.104562v-49.22386h17.964913v31.618246h41.139649z" p-id="10465"></path><path d="M649.611228 249.89193a29.821754 29.821754 0 0 1 28.025263 31.797895v67.727719h67.188772a31.079298 31.079298 0 0 1 31.258948 31.258947v361.094737A30.899649 30.899649 0 0 1 744.825263 772.491228h-431.157895a29.821754 29.821754 0 0 1-28.025263-31.797895V280.971228a29.642105 29.642105 0 0 1 27.486316-31.079298h336.482807m0-17.964912H312.050526a48.864561 48.864561 0 0 0-32.875789 16.707368 46.529123 46.529123 0 0 0-11.138246 33.055439v458.823859a47.247719 47.247719 0 0 0 11.317895 33.594386 49.22386 49.22386 0 0 0 33.414737 16.707369h432.05614a48.505263 48.505263 0 0 0 49.22386-49.044211v-361.094737a48.684912 48.684912 0 0 0-49.22386-49.223859h-49.223859v-49.22386a47.247719 47.247719 0 0 0-11.317895-33.594386 49.22386 49.22386 0 0 0-33.414737-16.707368z" p-id="10466"></path><path d="M639.730526 293.905965V646.736842a17.964912 17.964912 0 0 0 0 3.054035 27.486316 27.486316 0 0 0 28.74386 21.737544h1.257544a28.564211 28.564211 0 0 0 21.557895-8.982456 23.534035 23.534035 0 0 0 5.928421-15.988772V388.042105h35.929824v341.333334H328.578246V293.905965h311.15228m2.694737-17.964912H325.344561a16.34807 16.34807 0 0 0-14.731228 17.066666v436.008421a16.707368 16.707368 0 0 0 15.270176 17.964913h407.264561a17.964912 17.964912 0 0 0 17.964912-17.964913v-341.333333a17.964912 17.964912 0 0 0-17.964912-17.964912h-53.894737V646.736842s0 6.287719-10.060351 6.647018c-9.880702 0-11.138246-6.826667-11.138245-6.826667V293.726316a16.527719 16.527719 0 0 0-15.270176-17.964912z" p-id="10467"></path><path d="M363.789474 374.388772h137.07228a6.287719 6.287719 0 0 0 0-12.39579h-137.07228a6.287719 6.287719 0 0 0 0 12.39579z m0 93.417544h236.597894a5.928421 5.928421 0 0 0 6.28772-6.28772 5.748772 5.748772 0 0 0-6.28772-6.10807H363.789474a5.748772 5.748772 0 0 0-6.10807 6.10807 5.748772 5.748772 0 0 0 6.10807 6.28772z m237.855438 80.842105H365.047018a6.287719 6.287719 0 0 0 0 12.575439h236.597894a6.287719 6.287719 0 1 0 0-12.575439z m0 99.705263H365.047018a6.287719 6.287719 0 0 0 0 12.39579h236.597894a6.287719 6.287719 0 1 0 0-12.39579zM829.619649 391.635088a9.162105 9.162105 0 0 1-6.647017-3.054035 8.802807 8.802807 0 0 1 0-12.575439A143.719298 143.719298 0 1 0 610.807018 185.397895a8.982456 8.982456 0 1 1-14.551579-10.599299 161.684211 161.684211 0 1 1 239.47228 214.501053 8.982456 8.982456 0 0 1-6.10807 2.335439z" p-id="10468"></path><path d="M648.892632 166.355088l-42.037895 9.341754-9.341755-42.037895-13.832982 21.737544 9.162105 42.037895 42.037895-9.162105 14.012632-21.917193z" p-id="10469"></path></svg>