<?xml version="1.0" standalone="no"?><!DOCTYPE svg PUBLIC "-//W3C//DTD SVG 1.1//EN" "http://www.w3.org/Graphics/SVG/1.1/DTD/svg11.dtd"><svg t="1775978064696" class="icon" viewBox="0 0 1024 1024" version="1.1" xmlns="http://www.w3.org/2000/svg" p-id="12675" xmlns:xlink="http://www.w3.org/1999/xlink" width="32" height="32"><path d="M895.5 660.5L742 239.7l-0.1-0.4c-6.5-17.1-18-31.6-33-42-15.1-10.4-32.7-15.9-51-15.9h-313c-39 0-73.3 24.9-85.5 61.9l-0.1 0.2L128.2 661c-10.8 18-17 39-17 61.5 0 66.2 53.8 120 120 120h561.6c66.2 0 120-53.8 120-120 0-22.7-6.3-43.9-17.3-62zM306.8 258.9c5.5-16.4 20.7-27.4 38-27.4h313c16.4 0 31.4 10.3 37.3 25.6l127.4 349.1c-9.5-2.4-19.4-3.7-29.7-3.7H231.2c-11.7 0-23.1 1.7-33.8 4.8l109.4-348.4z m486 533.6H231.2c-38.6 0-70-31.4-70-70s31.4-70 70-70h561.6c38.6 0 70 31.4 70 70s-31.4 70-70 70z" fill="#9F7C57" p-id="12676"></path><path d="M735 722m-34 0a34 34 0 1 0 68 0 34 34 0 1 0-68 0Z" fill="#9F7C57" p-id="12677"></path><path d="M331 543.3c16.1 15.2 37.1 23.6 59.3 23.6h224.3c28 0 54.3-10.9 74.1-30.7 20.6-20.6 31.7-49.1 30.6-78.2-1-27.3-12.6-52.8-32.7-71.7-14.5-13.8-32.4-23-51.6-26.9-9.8-58.3-60.9-102.9-122.2-102.9h-20.3c-33 0-63.9 12.8-87.2 36.1-23.3 23.4-36.1 54.4-36.1 87.3 0 6.5 0.5 13 1.5 19.3-15.5 3.5-29.8 11.3-41.3 22.8-16.5 16.6-25.6 39.5-24.8 62.9 0.7 22.3 10.1 43 26.4 58.4z m33.8-85.9c6.6-6.6 15.4-10.2 24.7-10.2 11 0 21.5-5.3 28-14.2 6.5-8.9 8.4-20.5 5.1-31.1-2.2-7.1-3.4-14.5-3.4-22 0-19.6 7.6-38 21.5-51.9 13.8-13.9 32.2-21.5 51.9-21.5h20.3c40.8 0 73.9 32.9 73.9 73.3v0.4c0 7.2 2.7 14 7.8 19.1 5.1 5.1 11.8 7.9 19 7.9 14.5 0 28.2 5.5 38.7 15.4 10.4 9.9 16.5 23.1 17 37.3 0.6 15.5-5.1 30-16 40.9-10.4 10.4-24.1 16.1-38.8 16.1H390.3c-19.1 0-35.1-15.1-35.7-33.6-0.4-9.8 3.3-19 10.2-25.9z" fill="#9F7C57" p-id="12678"></path></svg>