<?xml version="1.0" standalone="no"?><!DOCTYPE svg PUBLIC "-//W3C//DTD SVG 1.1//EN" "http://www.w3.org/Graphics/SVG/1.1/DTD/svg11.dtd"><svg t="1775975387600" class="icon" viewBox="0 0 1024 1024" version="1.1" xmlns="http://www.w3.org/2000/svg" p-id="23563" xmlns:xlink="http://www.w3.org/1999/xlink" width="32" height="32"><path d="M669.696 243.2l72.704 76.8h-134.4v76.8h-192v-76.8h-140.8l74.752-76.8 108.4416-111.3088L512 76.8l52.8384 55.808 104.8064 110.592z m-105.8304 0L511.232 187.648 457.216 243.2h35.6352v76.8h38.4v-76.8h32.6656z m44.1344 262.4v-76.8h-192v76.8h192z m0 108.8v-76.8h-192V614.4h192z m-524.8 121.6c0-74.752 111.616-149.504 265.216-177.7664l14.9504 74.752q-68.2496 12.288-123.6992 37.2736-47.3088 21.2992-68.864 45.7728-10.752 12.288-10.752 19.968 0 7.68 10.752 19.968 21.5552 24.4736 68.864 45.7728 109.8752 49.4592 270.08 49.4592 160.256 0 270.1312-49.4592 47.3088-21.2992 68.8128-45.7728 10.8544-12.288 10.8544-19.968 0-7.68-10.8544-19.968-21.504-24.4736-68.8128-45.7728-53.76-24.1664-119.4496-36.5056l14.9504-74.7008c151.3984 28.672 260.9664 103.0144 260.9664 176.9472 0 106.0352-190.976 192-426.5984 192-235.52 0-426.496-85.9648-426.496-192z m428.8 51.2c70.656 0 128-25.7536 128-57.6 0-31.7952-57.344-57.6-128-57.6s-128 25.8048-128 57.6c0 31.8464 57.344 57.6512 128 57.6512z" p-id="23564"></path></svg>