<?xml version="1.0" standalone="no"?><!DOCTYPE svg PUBLIC "-//W3C//DTD SVG 1.1//EN" "http://www.w3.org/Graphics/SVG/1.1/DTD/svg11.dtd"><svg t="1775986266449" class="icon" viewBox="0 0 1024 1024" version="1.1" xmlns="http://www.w3.org/2000/svg" p-id="28604" xmlns:xlink="http://www.w3.org/1999/xlink" width="32" height="32"><path d="M366.096732 609.882353c-5.688889-12.047059-15.728105-21.249673-28.109804-25.76732L71.947712 487.571242c-12.54902-4.517647-26.101961-4.015686-38.149019 1.673202-12.047059 5.688889-21.249673 15.728105-25.76732 28.109804-9.369935 25.934641 4.015686 54.546405 29.950326 63.91634l266.039216 96.376471c5.521569 2.007843 11.377778 3.011765 16.899346 3.011765 20.413072 0 39.654902-12.54902 47.016994-32.962092 4.350327-12.214379 3.848366-25.76732-1.840523-37.814379z" fill="#909BA3" p-id="28605"></path><path d="M1015.968627 42.833987c-5.856209-11.879739-16.230065-20.413072-29.448366-24.261438-12.54902-3.681046-26.269281-2.342484-38.48366 3.681046L36.141176 471.843137c-25.6 12.71634-36.977778 42.499346-25.098039 66.426144 8.198693 16.732026 25.43268 26.101961 43.837909 26.101961 8.031373 0 16.230065-1.840523 24.094117-5.688889l911.895425-449.422222c25.6-12.71634 36.810458-42.499346 25.098039-66.426144z" fill="#909BA3" p-id="28606"></path><path d="M982.169935 17.401307c-12.047059-2.677124-24.428758-1.338562-34.969935 3.848366-11.210458 5.688889-19.07451 15.393464-21.751634 26.771242l-156.611765 686.682353-215.843137-78.138562c-12.54902-4.517647-26.101961-4.015686-38.14902 1.673202-12.047059 5.688889-21.249673 15.728105-25.76732 28.109804-9.369935 25.934641 4.015686 54.546405 29.950327 63.91634l266.039216 96.376471c5.521569 2.007843 11.377778 3.011765 17.066666 3.011765 7.194771 0 14.389542-1.505882 21.082353-4.684968 12.047059-5.688889 21.249673-15.728105 25.767321-28.109804 0.669281-1.673203 1.171242-3.513725 1.505882-5.354248l0.501961-1.505882 168.993464-740.392157c5.186928-22.922876-11.712418-46.180392-37.814379-52.203922z" fill="#909BA3" p-id="28607"></path><path d="M1005.260131 29.113725c-19.743791-18.070588-48.857516-18.237908-65.254902-0.50196L378.813072 638.326797c-16.230065 17.735948-13.552941 46.849673 6.19085 64.920262 9.871895 9.035294 22.253595 13.720261 34.300653 13.720261 11.712418 0 22.922876-4.350327 30.954249-13.2183L1011.45098 94.033987c16.397386-17.735948 13.552941-46.849673-6.190849-64.920262z" fill="#FF002C" p-id="28608"></path><path d="M411.105882 629.124183c-27.440523 0-49.861438 22.420915-49.861438 49.861438v282.938562c0 27.440523 22.420915 49.861438 49.861438 49.861438s49.861438-22.420915 49.861438-49.861438V678.985621c0-27.440523-22.420915-49.861438-49.861438-49.861438z" fill="#FF002C" p-id="28609"></path></svg>