<?xml version="1.0" standalone="no"?><!DOCTYPE svg PUBLIC "-//W3C//DTD SVG 1.1//EN" "http://www.w3.org/Graphics/SVG/1.1/DTD/svg11.dtd"><svg t="1775975505166" class="icon" viewBox="0 0 1024 1024" version="1.1" xmlns="http://www.w3.org/2000/svg" p-id="33645" data-spm-anchor-id="a313x.search_index.0.i13.71933a81HvrjsL" xmlns:xlink="http://www.w3.org/1999/xlink" width="32" height="32"><path d="M509 553.44a214.24 214.24 0 1 1 151.48-62.75A212.79 212.79 0 0 1 509 553.44zM509 189c-82.84 0-150.23 67.4-150.23 150.23S426.16 489.44 509 489.44s150.23-67.39 150.23-150.23S591.83 189 509 189z" fill="#7b2ea6" p-id="33646"></path><path d="M850.1 894.53a32 32 0 0 1-32-32 309.1 309.1 0 1 0-618.2 0 32 32 0 0 1-64 0 373.1 373.1 0 1 1 746.2 0 32 32 0 0 1-32 32z" fill="#7b2ea6" p-id="33647"></path><path d="M510.15 844.29a32 32 0 0 1-24.64-11.59l-93.75-113.2a32 32 0 0 1 0-40.82l93.75-113.2a32 32 0 0 1 24.64-11.59h0.07a32 32 0 0 1 24.66 11.69l93 113.2a32 32 0 0 1 0 40.62l-93 113.2a32 32 0 0 1-24.66 11.69zM458 699.09L510.06 762l51.68-62.91-51.68-62.91z" fill="#7b2ea6" p-id="33648"></path></svg>