<?xml version="1.0" standalone="no"?><!DOCTYPE svg PUBLIC "-//W3C//DTD SVG 1.1//EN" "http://www.w3.org/Graphics/SVG/1.1/DTD/svg11.dtd"><svg t="1775975285565" class="icon" viewBox="0 0 1024 1024" version="1.1" xmlns="http://www.w3.org/2000/svg" p-id="15368" xmlns:xlink="http://www.w3.org/1999/xlink" width="32" height="32"><path d="M960 836.266667l-247.466667-247.466667c34.133333-55.466667 51.2-119.466667 51.2-187.733333 0-200.533333-162.133333-362.666667-362.666666-362.666667S38.4 200.533333 38.4 401.066667s162.133333 362.666667 362.666667 362.666666c68.266667 0 132.266667-21.333333 187.733333-51.2l247.466667 247.466667c17.066667 17.066667 38.4 25.6 64 25.6s46.933333-8.533333 64-25.6c17.066667-17.066667 25.6-38.4 25.6-64s-12.8-42.666667-29.866667-59.733333zM81.066667 401.066667c0-174.933333 145.066667-320 320-320s320 145.066667 320 320-145.066667 320-320 320c-179.2 0-320-140.8-320-320z m849.066666 529.066666c-17.066667 17.066667-46.933333 17.066667-64 0l-243.2-243.2c25.6-17.066667 46.933333-38.4 64-64l243.2 243.2c8.533333 8.533333 12.8 21.333333 12.8 29.866667s-4.266667 25.6-12.8 34.133333z" p-id="15369"></path><path d="M157.866667 311.466667c-8.533333 0-21.333333 4.266667-25.6 17.066666-8.533333 21.333333-12.8 42.666667-12.8 59.733334 0 12.8 8.533333 21.333333 21.333333 21.333333s21.333333-8.533333 21.333333-21.333333c0-17.066667 4.266667-29.866667 8.533334-46.933334 4.266667-12.8 0-25.6-12.8-29.866666zM401.066667 119.466667C302.933333 119.466667 213.333333 170.666667 162.133333 256c-4.266667 8.533333-4.266667 21.333333 8.533334 25.6 4.266667 0 8.533333 4.266667 12.8 4.266667 8.533333 0 12.8-4.266667 17.066666-8.533334 42.666667-72.533333 119.466667-110.933333 200.533334-110.933333 12.8 0 21.333333-8.533333 21.333333-21.333333s-8.533333-25.6-21.333333-25.6z" p-id="15370"></path></svg>