<?xml version="1.0" standalone="no"?><!DOCTYPE svg PUBLIC "-//W3C//DTD SVG 1.1//EN" "http://www.w3.org/Graphics/SVG/1.1/DTD/svg11.dtd"><svg t="1775976861849" class="icon" viewBox="0 0 1422 1024" version="1.1" xmlns="http://www.w3.org/2000/svg" p-id="56301" xmlns:xlink="http://www.w3.org/1999/xlink" width="44.4375" height="32"><path d="M357.364962 427.767809c0-165.983951 134.313212-300.474195 300.295175-300.474195h305.956204C927.967366 52.343643 852.098422 0.184988 763.684111 0.184988H221.973648C102.827461 0.184988 5.52577 94.206624 0.238694 212.055905V473.290767c3.276078 75.003677 44.114662 139.968275 103.77826 177.652118l-36.394894 165.536399 175.010569-130.963537h116.403193c-0.294389-5.505879-1.670859-10.711401-1.67086-16.368453v-241.379485z" p-id="56302"></path><path d="M1199.525751 205.770292H657.815288c-122.533655 0-221.973648 99.463863-221.973648 221.997517v241.381474c0 122.537633 99.439993 221.981605 221.973648 221.981604h521.045515l175.014547 130.955581-36.428709-165.532421c62.273321-39.320887 104.052758-108.293558 104.052758-187.404764V427.767809c0-122.533655-99.439993-221.997517-221.973648-221.997517zM748.151088 533.807697H705.361178l28.527933 28.527932c7.130988 7.130988 7.130988 17.826477 0 24.959454-3.566489 3.566489-7.132978 3.566489-14.263967 3.566489s-10.697477 0-14.263966-3.566489l-28.529921-28.525943v42.793887c0 10.697477-7.130988 17.828466-17.830455 17.828466-10.695488 0-17.828466-7.130988-17.828466-17.828466v-42.793887l-28.529921 28.525943c-3.566489 3.566489-7.132978 3.566489-14.263966 3.566489-7.130988 0-10.695488 0-14.261977-3.566489-7.130988-7.132978-7.130988-17.828466 0-24.959454l28.525943-28.527932h-42.78792c-10.703445 0-17.834433-7.136956-17.834433-17.834434 0-10.695488 7.130988-17.828466 17.834433-17.828465h42.78792l-28.525943-28.525943c-7.130988-7.130988-7.130988-17.834433 0-24.965422 7.128999-7.130988 17.828466-7.130988 24.959454 0l28.529922 28.529921v-42.793887c0-10.697477 7.132978-17.828466 17.830455-17.828466s17.828466 7.130988 17.828465 17.828466v42.793887l28.525943-28.529921c7.136956-7.130988 17.834433-7.130988 24.965422 0 7.132978 7.130988 7.132978 17.834433 0 24.965422l-28.53191 28.525943h42.795876c10.697477 0 24.959454 7.132978 24.959454 17.828465 0 10.697477-7.130988 17.834433-17.828465 17.834434z m289.404752 0h-42.793887l28.525943 28.527932c7.136956 7.130988 7.136956 17.826477 0 24.959454-3.5645 3.566489-7.130988 3.566489-14.261977 3.566489-7.132978 0-10.697477 0-14.263966-3.566489l-28.525943-28.525943v42.793887c0 10.697477-7.130988 17.828466-17.834433 17.828466-10.699466 0-17.828466-7.130988-17.828466-17.828466v-42.793887l-28.525943 28.525943c-3.566489 3.566489-7.130988 3.566489-14.263966 3.566489-7.136956 0-10.703445 0-14.269934-3.566489-7.128999-7.132978-7.128999-17.828466 0-24.959454l28.5339-28.527932h-42.795877c-10.695488 0-17.828466-7.136956-17.828465-17.834434 0-10.695488 7.132978-17.828466 17.828465-17.828465h42.795877l-28.5339-28.525943c-7.128999-7.130988-7.128999-17.834433 0-24.965422 7.132978-7.130988 17.834433-7.130988 24.967411 0l28.525943 28.529921v-42.793887c0-10.697477 7.132978-17.828466 17.828466-17.828466 10.697477 0 17.834433 7.130988 17.834433 17.828466v42.793887l28.525943-28.529921c7.132978-7.130988 17.830455-7.130988 24.961443 0 7.130988 7.130988 7.130988 17.834433 0 24.965422l-28.525943 28.525943h42.793888c10.697477 0 24.961443 7.132978 24.961443 17.828465 0 10.697477-7.132978 17.834433-17.830455 17.834434z m289.400774 0h-42.789909l28.525943 28.527932c7.132978 7.130988 7.132978 17.826477 0 24.959454-3.5645 3.566489-7.130988 3.566489-14.261977 3.566489-7.132978 0-10.697477 0-14.263966-3.566489l-28.53191-28.525943v42.793887c0 10.697477-7.130988 17.828466-17.828466 17.828466s-17.828466-7.130988-17.828466-17.828466v-42.793887l-28.53191 28.525943c-3.566489 3.566489-7.130988 3.566489-14.263966 3.566489-7.130988 0-10.697477 0-14.261977-3.566489-7.132978-7.132978-7.132978-17.828466 0-24.959454l28.525943-28.527932H1148.656044c-10.697477 0-17.834433-7.136956-17.834433-17.834434 0-10.695488 7.136956-17.828466 17.834433-17.828465h42.789909l-28.525943-28.525943c-7.132978-7.130988-7.132978-17.834433 0-24.965422 7.130988-7.130988 17.828466-7.130988 24.959454 0l28.53191 28.529921v-42.793887c0-10.697477 7.130988-17.828466 17.828466-17.828466s17.830455 7.130988 17.830455 17.828466v42.793887l28.529921-28.529921c7.132978-7.130988 17.830455-7.130988 24.961444 0 7.130988 7.130988 7.130988 17.834433 0 24.965422l-28.525943 28.525943h42.789909c10.697477 0 24.959454 7.132978 24.959454 17.828465 0 10.697477-7.130988 17.834433-17.828466 17.834434z" p-id="56303"></path></svg>