<?xml version="1.0" standalone="no"?><!DOCTYPE svg PUBLIC "-//W3C//DTD SVG 1.1//EN" "http://www.w3.org/Graphics/SVG/1.1/DTD/svg11.dtd"><svg t="1775985348056" class="icon" viewBox="0 0 1102 1024" version="1.1" xmlns="http://www.w3.org/2000/svg" p-id="23244" xmlns:xlink="http://www.w3.org/1999/xlink" width="34.4375" height="32"><path d="M982.490191 411.963077A176.206769 176.206769 0 1 1 630.155422 412.987077a176.206769 176.206769 0 0 1 352.334769-1.024z m-43.795693 0a18.432 18.432 0 0 0-18.432-18.432h-94.995692V297.984a18.904615 18.904615 0 0 0-18.904615-18.904615 18.432 18.432 0 0 0-18.432 18.904615V411.963077a18.432 18.432 0 0 0 18.432 18.904615h113.900307a18.432 18.432 0 0 0 18.432-18.904615z" fill="#FC6002" p-id="23245"></path><path d="M154.231729 630.153846a69.080615 69.080615 0 0 0-53.248 21.897846c-13.390769 14.336-20.401231 33.870769-20.401231 58.131693h24.969847c0.315077-19.140923 4.883692-33.792 13.390769-43.480616 7.876923-10.397538 19.456-15.281231 34.422154-15.281231 13.942154 0 25.206154 3.702154 33.083077 11.027693a39.384615 39.384615 0 0 1 11.972923 30.72 56.871385 56.871385 0 0 1-16.777846 38.912c-5.750154 6.144-17.014154 14.966154-34.107077 27.096615-23.079385 15.832615-38.596923 28.908308-47.18277 38.675692a77.981538 77.981538 0 0 0-21.582769 53.878154h144.935385v-22.212923H109.490806c3.702154-13.627077 17.723077-29.144615 42.141539-46.237538l15.990153-11.027693c16.620308-11.736615 28.041846-21.031385 34.422154-27.648a74.043077 74.043077 0 0 0 21.267693-51.2 59.549538 59.549538 0 0 0-19.456-45.922461 71.995077 71.995077 0 0 0-49.624616-17.329231z m128.393846 185.344a16.777846 16.777846 0 0 0-12.996923 5.513846 17.880615 17.880615 0 0 0-5.513846 13.39077c0 5.12 1.811692 9.452308 5.513846 13.075692 3.308308 3.623385 7.561846 5.513846 13.075693 5.513846 4.883692 0 9.452308-1.890462 13.075692-5.513846 3.623385-3.702154 5.513846-7.876923 5.513846-13.075692a17.880615 17.880615 0 0 0-5.513846-13.39077 18.195692 18.195692 0 0 0-13.075692-5.513846zM416.375729 630.153846c20.716308 0 37.809231 5.198769 50.491077 15.753846 12.524308 10.712615 18.904615 25.048615 18.904616 43.323077 0 24.339692-11.815385 40.723692-35.603693 48.679385 12.760615 3.938462 22.528 10.003692 29.144616 18.589538 7.404308 8.507077 11.027692 19.140923 11.027692 31.901539a62.621538 62.621538 0 0 1-20.716308 48.443077c-13.942154 12.760615-32.295385 19.140923-54.744615 19.140923-20.716308 0-37.494154-5.513846-50.569846-15.753846-15.517538-12.839385-24.024615-31.428923-25.836308-55.768616h25.206154c0.630154 17.014154 6.459077 30.168615 17.092923 38.990769a52.775385 52.775385 0 0 0 34.107077 11.264 52.696615 52.696615 0 0 0 37.415384-13.390769 43.638154 43.638154 0 0 0 13.075693-31.980307 37.809231 37.809231 0 0 0-12.760616-30.483693c-8.507077-7.246769-20.086154-10.633846-35.288615-10.633846h-17.644308v-19.456h16.699077c14.651077 0 25.6-3.387077 33.161846-9.767385a35.84 35.84 0 0 0 11.579077-28.356923 36.627692 36.627692 0 0 0-11.264-28.199384c-7.876923-7.325538-19.140923-10.712615-33.161846-10.712616-14.651077 0-25.836308 3.702154-34.107077 11.579077-8.507077 7.876923-13.390769 19.219692-14.966154 33.87077h-24.576a71.443692 71.443692 0 0 1 23.158154-49.388308c12.760615-11.815385 29.459692-17.644308 50.176-17.644308z" fill="#000000" p-id="23246"></path><path d="M735.154806 997.769846h-566.350769A170.141538 170.141538 0 0 1 0.001575 827.470769V249.698462A170.141538 170.141538 0 0 1 168.725268 78.769231h765.321846A170.141538 170.141538 0 0 1 1102.770806 249.698462v373.366153h-60.258461V249.698462c0-60.652308-48.443077-109.804308-108.465231-110.119385H168.725268A109.568 109.568 0 0 0 60.260037 249.698462v577.772307a109.568 109.568 0 0 0 108.465231 109.489231h566.429538v60.809846z" fill="#000000" p-id="23247"></path><path d="M376.203422 16.226462c16.226462 0 24.418462 8.192 24.418461 24.418461v128.393846c0 16.226462-8.192 24.418462-24.418461 24.418462-16.226462 0-24.418462-8.192-24.418462-24.418462V40.644923c0-16.226462 8.192-24.418462 24.418462-24.418461zM727.041575 16.226462c16.305231 0 24.418462 8.192 24.418462 24.418461v128.393846c0 16.226462-8.113231 24.418462-24.418462 24.418462-16.226462 0-24.418462-8.192-24.418461-24.418462V40.644923c0-16.226462 8.192-24.418462 24.418461-24.418461zM1064.646498 687.340308v48.758154h-551.384615v-48.836924zM1018.487729 787.692308v48.836923h-472.615384V787.692308z" fill="#000000" p-id="23248"></path><path d="M107.600345 393.846154h85.070769c19.298462 0 28.908308 9.609846 28.908308 28.829538 0 19.298462-9.609846 28.908308-28.829539 28.908308h-85.070769C88.301883 451.584 78.770806 441.895385 78.770806 422.675692 78.770806 403.456 88.380652 393.846154 107.600345 393.846154zM313.660652 393.846154h115.003077c19.219692 0 28.829538 9.609846 28.829539 28.829538 0 19.298462-9.609846 28.908308-28.829539 28.908308h-115.003077c-19.219692 0-28.829538-9.609846-28.829538-28.908308 0-19.219692 9.609846-28.829538 28.829538-28.829538z" fill="#FC6002" p-id="23249"></path></svg>