<?xml version="1.0" standalone="no"?><!DOCTYPE svg PUBLIC "-//W3C//DTD SVG 1.1//EN" "http://www.w3.org/Graphics/SVG/1.1/DTD/svg11.dtd"><svg t="1775976705254" class="icon" viewBox="0 0 1024 1024" version="1.1" xmlns="http://www.w3.org/2000/svg" p-id="47608" xmlns:xlink="http://www.w3.org/1999/xlink" width="32" height="32"><path d="M142.336629 1023.999674a73.410842 73.410842 0 0 1-30.832554-6.688544A73.247706 73.247706 0 0 1 67.946976 949.773156V74.063382A74.226518 74.226518 0 0 1 142.010358 0h739.818149a74.226518 74.226518 0 0 1 74.226518 74.063382V946.184182a74.063382 74.063382 0 0 1-124.635296 53.834617L530.435278 719.099978a8.809301 8.809301 0 0 0-11.908869 0L190.787784 1005.565396a72.758301 72.758301 0 0 1-48.451155 18.434278zM142.010358 65.254081a8.809301 8.809301 0 0 0-8.809301 8.809301v875.709774a8.483031 8.483031 0 0 0 5.220327 8.15676 8.483031 8.483031 0 0 0 9.461842-1.468217L475.784985 669.833146a73.900247 73.900247 0 0 1 99.349339 1.468217l300.658181 280.918821a8.319895 8.319895 0 0 0 9.624977 1.631352 8.15676 8.15676 0 0 0 5.383461-7.993625V74.063382a8.972436 8.972436 0 0 0-8.972436-8.809301z" fill="#3D3D3D" p-id="47609"></path><path d="M270.887169 577.335486V192.49954c0-9.951247 10.766923-18.108008 24.307146-18.108007h433.613371c13.377087 0 24.307145 8.15676 24.307146 18.108007v383.041459z" fill="#F683A2" p-id="47610"></path><path d="M501.070942 441.770132a32.627041 32.627041 0 0 1-23.165199-9.624977l-114.194643-114.194643A32.627041 32.627041 0 1 1 410.530904 271.946385l91.192579 91.029443L668.284526 195.762244a32.627041 32.627041 0 0 1 46.004127 46.167263L524.725546 432.145155a32.627041 32.627041 0 0 1-23.654604 9.624977z" fill="#3D3D3D" p-id="47611"></path></svg>