<?xml version="1.0" standalone="no"?><!DOCTYPE svg PUBLIC "-//W3C//DTD SVG 1.1//EN" "http://www.w3.org/Graphics/SVG/1.1/DTD/svg11.dtd"><svg t="1775976890662" class="icon" viewBox="0 0 1024 1024" version="1.1" xmlns="http://www.w3.org/2000/svg" p-id="57544" xmlns:xlink="http://www.w3.org/1999/xlink" width="32" height="32"><path d="M0 0h1024v1024H0z" fill="#FFFFFF" p-id="57545"></path><path d="M0 0h1024v1024H0z" fill="#FFFFFF" fill-opacity=".01" p-id="57546"></path><path d="M126.357333 482.218667l2.56 1.152 132.48 66.24-28.629333 57.237333-82.24-41.109333 0.128 0.853333c26.026667 173.674667 174.293333 307.370667 354.410667 310.72l6.933333 0.064v64c-237.141333 0-429.376-192.213333-429.376-429.376a32 32 0 0 1 43.733333-29.781333z m589.994667 65.92a168.256 168.256 0 1 1 0 336.469333 168.256 168.256 0 0 1 0-336.490667z m0 64a104.256 104.256 0 1 0 0 208.469333 104.256 104.256 0 0 0 0-208.490667zM512 82.602667c237.141333 0 429.376 192.213333 429.376 429.376a32 32 0 0 1-43.733333 29.781333l-2.56-1.152-132.48-66.24 28.629333-57.237333 82.218667 41.109333-0.106667-0.853333c-26.026667-173.674667-174.293333-307.370667-354.410667-310.72L512 146.624v-64z m-204.373333 56.746666a168.256 168.256 0 1 1 0 336.512 168.256 168.256 0 0 1 0-336.512z m0 64a104.256 104.256 0 1 0 0 208.512 104.256 104.256 0 0 0 0-208.512z" fill="#666666" p-id="57547"></path></svg>