<?xml version="1.0" standalone="no"?><!DOCTYPE svg PUBLIC "-//W3C//DTD SVG 1.1//EN" "http://www.w3.org/Graphics/SVG/1.1/DTD/svg11.dtd"><svg t="1775975472529" class="icon" viewBox="0 0 1024 1024" version="1.1" xmlns="http://www.w3.org/2000/svg" p-id="30920" xmlns:xlink="http://www.w3.org/1999/xlink" width="32" height="32"><path d="M964.266667 423.253333c-1.706667-8.533333-8.533333-13.653333-15.36-13.653333-51.2-1.706667-98.986667-30.72-126.293334-76.8-27.306667-46.08-27.306667-100.693333-3.413333-146.773333 3.413333-6.826667 1.706667-15.36-3.413333-20.48-44.373333-39.253333-97.28-69.973333-153.6-88.746667-6.826667-1.706667-15.36 0-20.48 6.826667C612.693333 126.293333 564.906667 153.6 512 153.6s-100.693333-27.306667-129.706667-69.973333c-3.413333-6.826667-11.946667-10.24-20.48-6.826667-56.32 18.773333-109.226667 49.493333-153.6 88.746667-5.12 5.12-6.826667 13.653333-3.413333 20.48 23.893333 46.08 22.186667 100.693333-3.413333 146.773333-27.306667 46.08-73.386667 73.386667-126.293334 76.8-8.533333 0-13.653333 6.826667-15.36 13.653333-5.12 29.013333-8.533333 58.026667-8.533333 88.746667s3.413333 59.733333 8.533333 88.746667c1.706667 8.533333 8.533333 13.653333 15.36 13.653333 51.2 1.706667 98.986667 30.72 126.293334 76.8 27.306667 46.08 27.306667 100.693333 3.413333 146.773333-3.413333 6.826667-1.706667 15.36 3.413333 20.48 44.373333 39.253333 97.28 69.973333 153.6 88.746667 6.826667 1.706667 15.36 0 20.48-6.826667C409.6 896 459.093333 870.4 512 870.4s100.693333 27.306667 129.706667 69.973333c3.413333 6.826667 11.946667 10.24 20.48 6.826667 56.32-18.773333 109.226667-49.493333 153.6-88.746667 6.826667-6.826667 8.533333-17.066667 1.706666-23.893333-6.826667-6.826667-17.066667-8.533333-23.893333-1.706667-39.253333 34.133333-81.92 59.733333-129.706667 78.506667-35.84-46.08-92.16-75.093333-151.893333-75.093333s-116.053333 29.013333-150.186667 75.093333c-44.373333-17.066667-83.626667-39.253333-121.173333-69.973333 22.186667-52.906667 20.48-116.053333-10.24-167.253334-30.72-51.2-81.92-85.333333-139.946667-92.16-3.413333-23.893333-5.12-46.08-5.12-69.973333s1.706667-46.08 5.12-69.973333c58.026667-6.826667 110.933333-40.96 139.946667-92.16 30.72-51.2 32.426667-114.346667 10.24-167.253334 35.84-29.013333 76.8-52.906667 121.173333-69.973333 34.133333 46.08 90.453333 75.093333 150.186667 75.093333s116.053333-29.013333 150.186667-75.093333c44.373333 17.066667 83.626667 39.253333 121.173333 69.973333-22.186667 52.906667-20.48 116.053333 10.24 167.253334 30.72 51.2 81.92 85.333333 139.946667 92.16a482.645333 482.645333 0 0 1 0 139.946666c-58.026667 6.826667-110.933333 40.96-139.946667 92.16-5.12 8.533333-1.706667 18.773333 6.826667 23.893334 8.533333 5.12 18.773333 1.706667 23.893333-6.826667 27.306667-46.08 73.386667-73.386667 126.293333-76.8 8.533333 0 13.653333-6.826667 15.36-13.653333 5.12-29.013333 8.533333-58.026667 8.533334-88.746667s-5.12-59.733333-10.24-88.746667z" fill="#34A6FF" p-id="30921"></path><path d="M512 682.666667c-93.866667 0-170.666667-76.8-170.666667-170.666667s76.8-170.666667 170.666667-170.666667 170.666667 76.8 170.666667 170.666667-76.8 170.666667-170.666667 170.666667z m0-34.133334c75.093333 0 136.533333-61.44 136.533333-136.533333s-61.44-136.533333-136.533333-136.533333-136.533333 61.44-136.533333 136.533333 61.44 136.533333 136.533333 136.533333z" fill="#FF587A" p-id="30922"></path></svg>